<?xml version="1.0" encoding="utf-8"?>
<!-- Uploaded to: SVG Repo, www.svgrepo.com, Generator: SVG Repo Mixer Tools -->
<svg fill="#000000" width="800px" height="800px" viewBox="0 0 32 32" version="1.1" xmlns="http://www.w3.org/2000/svg">
<title>list-filled</title>
<path d="M30 14.75h-17c-0.69 0-1.25 0.56-1.25 1.25s0.56 1.25 1.25 1.25v0h17c0.69 0 1.25-0.56 1.25-1.25s-0.56-1.25-1.25-1.25v0zM13 6.25h17c0.69 0 1.25-0.56 1.25-1.25s-0.56-1.25-1.25-1.25v0h-17c-0.69 0-1.25 0.56-1.25 1.25s0.56 1.25 1.25 1.25v0zM30 25.75h-17c-0.69 0-1.25 0.56-1.25 1.25s0.56 1.25 1.25 1.25v0h17c0.69 0 1.25-0.56 1.25-1.25s-0.56-1.25-1.25-1.25v0zM6 0.75h-2c-1.794 0.002-3.248 1.456-3.25 3.25v2c0.002 1.794 1.456 3.248 3.25 3.25h2c1.794-0.002 3.248-1.456 3.25-3.25v-2c-0.002-1.794-1.456-3.248-3.25-3.25h-0zM3.252 6.010l-0.002-0.010v-2l0.002-0.010zM6.75 6c0 0.015-0.008 0.028-0.009 0.043v-2.087c0.001 0.015 0.009 0.028 0.009 0.043zM6 11.75h-2c-1.794 0.002-3.248 1.456-3.25 3.25v2c0.002 1.794 1.456 3.248 3.25 3.25h2c1.794-0.002 3.248-1.456 3.25-3.25v-2c-0.002-1.794-1.456-3.248-3.25-3.25h-0zM3.252 17.010l-0.002-0.010v-2l0.002-0.010zM6.75 17c0 0.015-0.008 0.028-0.009 0.043v-2.087c0.001 0.015 0.009 0.028 0.009 0.043zM6 22.75h-2c-1.794 0.002-3.248 1.456-3.25 3.25v2c0.002 1.794 1.456 3.248 3.25 3.25h2c1.794-0.002 3.248-1.456 3.25-3.25v-2c-0.002-1.794-1.456-3.248-3.25-3.25h-0zM3.252 28.010l-0.002-0.010v-2l0.002-0.010zM6.75 28c0 0.015-0.008 0.028-0.009 0.043v-2.087c0.001 0.015 0.009 0.028 0.009 0.043z"></path>
</svg>